<svg xmlns="http://www.w3.org/2000/svg" width="126" height="34" viewBox="0 0 126 34" fill="none"><path d="M60.8696 20.2724C60.8696 16.7487 58.5656 14.6142 54.2287 13.7671L49.5191 12.8523C48.2316 12.6151 47.1474 11.9714 47.1474 10.8872C47.1474 9.56576 48.2994 8.5493 50.1968 8.5493C52.3313 8.5493 53.8221 9.97234 53.9915 12.1747H60.463C60.0903 6.92297 55.9228 3.60254 50.129 3.60254C44.674 3.60254 40.6759 6.78744 40.6759 11.3276C40.6759 15.2579 43.251 17.528 47.1474 18.2734L51.5859 19.1205C53.009 19.3915 54.0593 20.1708 54.0593 21.2211C54.0593 22.7458 52.6024 23.5929 50.4001 23.5929C47.7573 23.5929 46.2326 22.136 46.1648 19.832H39.6934C40.1338 25.2192 44.1997 28.5735 50.5356 28.5735C56.8715 28.5735 60.8696 25.287 60.8696 20.2724Z" fill="white"></path><path d="M70.6808 28.5735C75.8648 28.5735 79.4224 25.3209 79.9306 20.103H73.7641C73.6286 22.1698 72.5104 23.3896 70.7147 23.3896C68.6479 23.3896 67.4959 21.8649 67.4959 19.1205C67.4959 16.4438 68.6818 14.8852 70.7147 14.8852C72.4766 14.8852 73.6624 16.1389 73.7641 18.1379H79.9306C79.4224 13.0556 75.6954 9.66741 70.6808 9.66741C65.4291 9.66741 61.4988 13.6994 61.4988 19.1205C61.4988 24.6771 65.2597 28.5735 70.6808 28.5735Z" fill="white"></path><path d="M92.2158 28.2347H96.8915V16.9859C96.8915 12.378 93.9437 9.66741 88.9292 9.66741C84.4229 9.66741 81.2719 12.4457 80.9331 16.681H86.1509C86.3542 15.0885 87.3029 14.2076 88.8953 14.2076C90.5217 14.2076 91.4365 15.0885 91.4365 16.681V17.5619C90.6572 17.4264 89.7424 17.3586 88.7598 17.3586C83.542 17.3586 80.662 19.2899 80.662 22.8475C80.662 26.3034 83.2032 28.5735 86.9979 28.5735C89.3358 28.5735 90.9282 27.9298 92.2158 26.4728V28.2347ZM86.117 22.6781C86.117 21.4244 87.1674 20.7807 89.1325 20.7807C89.8779 20.7807 90.5555 20.8484 91.4365 21.0179V22.1698C91.4365 23.6606 90.2845 24.5755 88.3532 24.5755C86.9302 24.5755 86.117 23.8639 86.117 22.6781Z" fill="white"></path><path d="M105.337 28.2347V3.90748H99.4755V28.2347H105.337Z" fill="white"></path><path d="M116.479 28.5735C121.867 28.5735 126 24.3383 126 19.1205C126 13.9026 121.867 9.66741 116.479 9.66741C111.092 9.66741 106.958 13.9026 106.958 19.1205C106.958 24.3383 111.092 28.5735 116.479 28.5735ZM116.479 23.3896C114.684 23.3896 112.989 21.9665 112.989 19.1205C112.989 16.2744 114.684 14.8852 116.479 14.8852C118.275 14.8852 119.969 16.2744 119.969 19.1205C119.969 21.9665 118.275 23.3896 116.479 23.3896Z" fill="white"></path><path fill-rule="evenodd" clip-rule="evenodd" d="M7.70044 0C3.4476 0 0 3.4476 0 7.70044V25.6681C0 29.921 3.4476 33.3686 7.70044 33.3686H25.6681C29.921 33.3686 33.3686 29.921 33.3686 25.6681V7.70044C33.3686 3.4476 29.921 0 25.6681 0H7.70044ZM18.096 10.3699C18.096 11.2772 18.843 12.0127 19.7645 12.0127H24.0787L18.096 17.9033L14.2705 14.1366C13.6189 13.4951 12.5625 13.4951 11.911 14.1366L3.56885 22.3504C2.91728 22.9919 2.91728 24.0321 3.56885 24.6736C4.22041 25.3152 5.2768 25.3152 5.92836 24.6736L13.0907 17.6214L16.9163 21.3881C17.5678 22.0296 18.6242 22.0296 19.2758 21.3881L26.4382 14.3359V18.5837C26.4382 19.491 27.1852 20.2265 28.1066 20.2265C29.028 20.2265 29.775 19.491 29.775 18.5837V10.3699C29.775 9.46265 29.028 8.72716 28.1066 8.72716H19.7645C18.843 8.72716 18.096 9.46265 18.096 10.3699Z" fill="white"></path></svg>